#!OML:ASF F:\VICON\USERDATA\INSTALL\rory3\rory3.ASF
:FULLY-SPECIFIED
:DEGREES
47
root -1.2097370611772476 16.763650319232678 12.020827286160225 3.0470111826424873 -6.1704766137477245 -4.433221937284281
lfemur -25.3259452816019 13.139054517506533 -7.9298681017520565
ltibia 112.95957937170779
lfoot 7.744430985367777 -13.833569116740179
ltoes 1.2957279974027358
rfemur -20.780933993199547 10.631832317113265 34.01699537269958
rtibia 55.8910354376539
rfoot -16.296690822708765 -12.716376327396173
rtoes 1.467433823622542
lowerback 1.0 1.0625415402030978 3.029982209084082
upperback 0.45932288581472336 2.2483506650241525 2.8691503908464475
thorax -9.371663198067594 1.028853589876818 0.35793174722367915
lowerneck -20.69095112731163 -3.1044439446186685 -1.3165141028302316
upperneck 13.757193773913635 -3.846016982162787 1.8324168439882524
head 7.594827459324357 -1.8084148897279118 0.3322136606136335
lclavicle -2.7061987489558466e-15 -1.8895360183293313e-15
lhumerus -54.19221297103072 -8.376306104321337 94.82285767645735
lradius 88.19003947006551
lwrist 35.9524257959913
lhand -29.16781634134564 3.4723354562558537
lfingers 7.12502
lthumb -2.2436536514573073 32.34745737425431
rclavicle -2.2453344962378026e-15 -1.516855179975395e-15
rhumerus -46.481853265316396 5.871694244419378 -93.26469715137289
rradius 103.26767957908811
rwrist -19.667709131790126
rhand -18.804344065536853 1.0
rfingers 7.12502
rthumb 8.239589330157354 10.23903358091028
48
root -1.1959761172532892 16.77516479698242 11.569748208815678 3.2764953231149887 -5.911623729519926 -5.051759076301905
lfemur -30.74672115832945 14.212310076640023 -7.682271571911839
ltibia 116.91232792916323
lfoot 5.287335283094744 -14.256065125912775
ltoes 0.24034655815518846
rfemur -16.530399277092872 10.512493588295488 34.79259572788345
rtibia 55.67498085068663
rfoot -18.14550994833533 -13.64989200330513
rtoes -2.1732433040542767
lowerback 1.0 1.3302428811580354 3.6382500774732485
upperback 0.44479036204706435 2.7257126129729143 2.9644537910496935
thorax -9.409473634158735 1.231796167826599 -0.04713253634721082
lowerneck -20.920518925558362 -3.337379685623901 -1.2337503441399513
upperneck 13.465165420080723 -4.1916048407672 1.8403585257964339
head 7.567274578138282 -1.952951995642277 0.29271445504908367
lclavicle -9.596287216880324e-16 4.345916999907381e-16
lhumerus -55.93395665506493 -7.9899430481780715 95.13074432898152
lradius 89.09040067704355
lwrist 36.04986602730426
lhand -29.232934604596455 3.600811102337134
lfingers 7.12502
lthumb -2.2430067389829786 32.55420783301282
rclavicle -8.426927223351909e-16 5.403697240992987e-16
rhumerus -43.69670517705132 7.203909189257635 -93.39394599957541
rradius 103.82585781979165
rwrist -19.89195400288315
rhand -18.661774596034437 1.0
rfingers 7.12502
rthumb 8.237054563112297 10.39930974029892
49
root -1.156750992652564 16.8612269468093 12.159771086176484 3.4943657602204112 -5.24749307023533 -5.3986483921762956
lfemur -35.85803191848393 14.456601577412556 -8.512582919489617
ltibia 118.61881057286934
lfoot 3.002019675244807 -13.994804656815798
ltoes -1.0326168020819892
rfemur -12.049935609859897 9.789037411664319 35.077125684181496
rtibia 54.91081590593691
rfoot -19.411439639727295 -14.486745197643861
rtoes -6.116503794624403
lowerback 1.0 1.5462320406184502 4.210374242462138
upperback 0.3983847084345554 3.1387294918371946 3.002247037696888
thorax -9.457640721609874 1.39686186277193 -0.4687793739015339
lowerneck -21.02639369258429 -3.6132279299646237 -1.206578770591172
upperneck 13.18177563363628 -4.609250360912656 1.8707724802359658
head 7.541064158034592 -2.130245481832147 0.2596843829045961
lclavicle -1.3239430054306248e-15 -8.037334219994724e-17
lhumerus -57.41388915526428 -7.643021171266169 95.27895950989877
lradius 90.1579521103414
lwrist 36.185401760869084
lhand -29.48498334530423 3.3953738661953308
lfingers 7.12502
lthumb -2.550428902563475 32.66983773146046
rclavicle -1.1509607082155153e-15 1.0636881694441553e-16
rhumerus -41.09213983667622 8.539897221732831 -93.42558326203635
rradius 104.79334503626895
rwrist -19.704554910320294
rhand -18.551586596517815 1.0
rfingers 7.12502
rthumb 8.093219829903589 10.543569916516962
50
root -1.1074429670912298 17.013456920650306 13.14563852304547 3.653433498000754 -3.6975896471105134 -5.522905714153618
lfemur -40.7743821409109 13.348988661727187 -10.30730737520674
ltibia 118.2061829966473
lfoot 1.1165310103482862 -13.108006465211389
ltoes -2.549463672664867
rfemur -6.976853789534484 8.086832908755696 34.95356899486272
rtibia 53.3041490630368
rfoot -19.56639656937921 -15.061933702547126
rtoes -9.37762200871114
lowerback 1.0 1.6176682429163662 4.833207453727723
upperback 0.25722535965612237 3.4350162501093138 2.9072654026385845
thorax -9.495000129773413 1.507558506494344 -0.9278262468213786
lowerneck -21.085042585788706 -3.9395205685419024 -1.2169316958844603
upperneck 12.984658355154322 -5.1006783461276575 1.921328382470601
head 7.541290443539909 -2.340025328115713 0.23000183151559273
lclavicle -3.2331119075992847e-15 -2.5984383446720086e-15
lhumerus -58.56383936854623 -7.280035480136314 95.28818749678496
lradius 91.03189744076137
lwrist 36.276011035090576
lhand -29.609703079524657 3.522035563154119
lfingers 7.12502
lthumb -2.544867082582672 33.03927868294784
rclavicle -2.6894171875686127e-15 -2.1264301817020704e-15
rhumerus -38.789891107364866 9.789044234543884 -93.35353835879437
rradius 106.23508388588728
rwrist -19.614584992368677
rhand -18.377163603871892 1.0
rfingers 7.12502
rthumb 8.060908754206817 10.937314737386439
